<?xml version="1.0" encoding="UTF-8" standalone="no"?> <svg width="24" height="24" viewBox="0 0 24 24" fill="none" xmlns="http://www.w3.org/2000/svg">
<path d="M12.4941 21H12.4331C11.443 20.993 10.4644 20.7872 9.55535 20.3949C8.6463 20.0025 7.8253 19.4316 7.14107 18.716C5.75165 17.2623 4.98352 15.3242 4.99976 13.3134C5.01601 11.3025 5.81534 9.37711 7.22807 7.946L11.8621 3.3C12.0499 3.11026 12.3051 3.00243 12.5721 3H12.5791C12.8472 3.00386 13.1029 3.1139 13.2901 3.306L17.8491 8.033C19.2377 9.48661 20.0052 11.4241 19.9888 13.4343C19.9724 15.4446 19.1733 17.3693 17.7611 18.8C17.0729 19.4976 16.2528 20.0514 15.3485 20.429C14.4443 20.8067 13.474 21.0008 12.4941 21V21ZM12.5581 5.429L8.64907 9.355C7.6031 10.414 7.01093 11.8388 6.99824 13.3272C6.98554 14.8156 7.55332 16.2503 8.58107 17.327C9.08082 17.8505 9.68061 18.2684 10.3449 18.5557C11.0091 18.8431 11.7243 18.9942 12.4481 19H12.4901C13.2071 19.0006 13.9172 18.8586 14.5788 18.5822C15.2405 18.3058 15.8405 17.9005 16.3441 17.39C17.39 16.3312 17.9819 14.9064 17.994 13.4182C18.0061 11.93 17.4376 10.4957 16.4091 9.42L12.5581 5.429Z" fill="black"/>
</svg>
