<?xml version="1.0" encoding="utf-8"?>
<!-- Generator: Adobe Illustrator 24.2.0, SVG Export Plug-In . SVG Version: 6.00 Build 0)  -->
<svg version="1.1" id="Layer_1" xmlns="http://www.w3.org/2000/svg" xmlns:xlink="http://www.w3.org/1999/xlink" x="0px" y="0px"
	 viewBox="0 0 64 64" style="enable-background:new 0 0 64 64;" xml:space="preserve">
<g id="_42.thermometer">
	<path d="M40.6,33.2h-2.9c-0.3,0-0.5,0.2-0.5,0.5s0.2,0.5,0.5,0.5h2.9c0.3,0,0.5-0.2,0.5-0.5S40.9,33.2,40.6,33.2z"/>
	<path d="M40.6,31.2h-2.9c-0.3,0-0.5,0.2-0.5,0.5c0,0.3,0.2,0.5,0.5,0.5h2.9c0.3,0,0.5-0.2,0.5-0.5C41.1,31.4,40.9,31.2,40.6,31.2z"
		/>
	<path d="M40.6,29.1h-2.9c-0.3,0-0.5,0.2-0.5,0.5s0.2,0.5,0.5,0.5h2.9c0.3,0,0.5-0.2,0.5-0.5S40.9,29.1,40.6,29.1z"/>
	<path d="M40.6,27h-2.9c-0.3,0-0.5,0.2-0.5,0.5s0.2,0.5,0.5,0.5h2.9c0.3,0,0.5-0.2,0.5-0.5S40.9,27,40.6,27z"/>
	<path d="M40.6,24.9h-2.9c-0.3,0-0.5,0.2-0.5,0.5s0.2,0.5,0.5,0.5h2.9c0.3,0,0.5-0.2,0.5-0.5S40.9,24.9,40.6,24.9z"/>
	<path d="M37.7,23.8h2.9c0.3,0,0.5-0.2,0.5-0.5c0-0.3-0.2-0.5-0.5-0.5h-2.9c-0.3,0-0.5,0.2-0.5,0.5C37.2,23.6,37.4,23.8,37.7,23.8z"
		/>
	<path d="M36.1,35.7V21.2c-0.1-1.9-1.7-3.3-3.6-3.2c-1.8,0.1-3.2,1.5-3.3,3.2v14.4C24.7,38.8,27.1,46,32.7,46
		C38.2,46,40.6,38.8,36.1,35.7z M32.7,43.4c-3.7,0-4.3-5.3-0.8-6.2c0-0.1,0-15.1,0-15.2c0-0.4,0.3-0.8,0.8-0.8
		c0.4,0,0.8,0.3,0.8,0.8c0,0.1,0,15.1,0,15.2C37,38.1,36.4,43.4,32.7,43.4z"/>
</g>
</svg>
