<?xml version="1.0" encoding="UTF-8" standalone="no"?>
<!-- Created with Inkscape (http://www.inkscape.org/) -->

<svg
   xmlns:dc="http://purl.org/dc/elements/1.1/"
   xmlns:cc="http://creativecommons.org/ns#"
   xmlns:rdf="http://www.w3.org/1999/02/22-rdf-syntax-ns#"
   xmlns:svg="http://www.w3.org/2000/svg"
   xmlns="http://www.w3.org/2000/svg"
   xmlns:sodipodi="http://sodipodi.sourceforge.net/DTD/sodipodi-0.dtd"
   xmlns:inkscape="http://www.inkscape.org/namespaces/inkscape"
   width="32"
   height="32"
   viewBox="0 0 8.4666665 8.4666669"
   version="1.1"
   id="svg8"
   inkscape:version="0.92.4 (5da689c313, 2019-01-14)"
   sodipodi:docname="11. Bulb Idea Light creative, business, innovation, inspiration.svg">
  <defs
     id="defs2">
    <pattern
       y="0"
       x="0"
       height="6"
       width="6"
       patternUnits="userSpaceOnUse"
       id="EMFhbasepattern" />
    <pattern
       y="0"
       x="0"
       height="6"
       width="6"
       patternUnits="userSpaceOnUse"
       id="EMFhbasepattern-3" />
    <pattern
       y="0"
       x="0"
       height="6"
       width="6"
       patternUnits="userSpaceOnUse"
       id="EMFhbasepattern-2" />
    <pattern
       y="0"
       x="0"
       height="6"
       width="6"
       patternUnits="userSpaceOnUse"
       id="EMFhbasepattern-1" />
    <pattern
       y="0"
       x="0"
       height="6"
       width="6"
       patternUnits="userSpaceOnUse"
       id="EMFhbasepattern-5" />
  </defs>
  <sodipodi:namedview
     id="base"
     pagecolor="#ffffff"
     bordercolor="#666666"
     borderopacity="1.0"
     inkscape:pageopacity="0.0"
     inkscape:pageshadow="2"
     inkscape:zoom="11.313708"
     inkscape:cx="3.1382441"
     inkscape:cy="14.930612"
     inkscape:document-units="px"
     inkscape:current-layer="layer1"
     showgrid="false"
     units="px"
     inkscape:window-width="1280"
     inkscape:window-height="658"
     inkscape:window-x="-8"
     inkscape:window-y="-8"
     inkscape:window-maximized="1"
     showguides="true"
     guidecolor="#af0000"
     guideopacity="0.49803922"
     guidehicolor="#ff4b4b"
     guidehiopacity="0.49803922"
     inkscape:snap-global="true">
    <inkscape:grid
       type="xygrid"
       id="grid815"
       empspacing="1"
       originx="0"
       originy="0"
       spacingx="0"
       spacingy="0"
       snapvisiblegridlinesonly="true"
       visible="true"
       enabled="true"
       dotted="false" />
  </sodipodi:namedview>
  <metadata
     id="metadata5">
    <rdf:RDF>
      <cc:Work
         rdf:about="">
        <dc:format>image/svg+xml</dc:format>
        <dc:type
           rdf:resource="http://purl.org/dc/dcmitype/StillImage" />
        <dc:title />
      </cc:Work>
    </rdf:RDF>
  </metadata>
  <g
     inkscape:label="Guides"
     inkscape:groupmode="layer"
     id="layer1"
     transform="translate(0,-288.53332)">
    <path
       style="color:#000000;font-style:normal;font-variant:normal;font-weight:normal;font-stretch:normal;font-size:medium;line-height:normal;font-family:sans-serif;font-variant-ligatures:normal;font-variant-position:normal;font-variant-caps:normal;font-variant-numeric:normal;font-variant-alternates:normal;font-feature-settings:normal;text-indent:0;text-align:start;text-decoration:none;text-decoration-line:none;text-decoration-style:solid;text-decoration-color:#000000;letter-spacing:normal;word-spacing:normal;text-transform:none;writing-mode:lr-tb;direction:ltr;text-orientation:mixed;dominant-baseline:auto;baseline-shift:baseline;text-anchor:start;white-space:normal;shape-padding:0;clip-rule:nonzero;display:inline;overflow:visible;visibility:visible;opacity:1;isolation:auto;mix-blend-mode:normal;color-interpolation:sRGB;color-interpolation-filters:linearRGB;solid-color:#000000;solid-opacity:1;vector-effect:none;fill:#000000;fill-opacity:1;fill-rule:nonzero;stroke:none;stroke-width:0.26458332;stroke-linecap:square;stroke-linejoin:miter;stroke-miterlimit:4;stroke-dasharray:none;stroke-dashoffset:0;stroke-opacity:1;paint-order:normal;color-rendering:auto;image-rendering:auto;shape-rendering:auto;text-rendering:auto;enable-background:accumulate"
       d="m 4.232146,289.06238 c -1.4606481,0 -2.6446416,1.2147 -2.6446437,2.70267 9.406e-4,0.95639 0.5206954,1.80986 1.3219225,2.29352 v 0.68031 h 0.3929823 v 0.0855 a 0.20449909,0.2066147 0 0 0 0,0.4035 v 0.11218 a 0.20449909,0.2066147 0 0 0 0,0.4035 v 0.46807 h 0.1861078 c -7.362e-4,0.004 -0.00242,0.0137 -0.00242,0.0137 0,3.2e-4 0.011872,0.0731 0.011982,0.0734 1.178e-4,3.3e-4 0.026925,0.0513 0.027159,0.0516 4.498e-4,6.2e-4 0.050994,0.051 0.051918,0.0516 9.405e-4,6.2e-4 0.026733,0.0143 0.035943,0.0186 0.00921,0.005 0.013978,0.006 0.020767,0.009 0.027126,0.009 0.047558,0.013 0.067095,0.0161 0.039072,0.006 0.079931,0.0106 0.1325918,0.0153 0.1053228,0.008 0.2442697,0.01 0.3985734,0.01 0.1542681,0 0.2932341,-0.002 0.3985735,-0.01 0.05267,-0.003 0.096641,-0.009 0.1357867,-0.0153 0.019572,-0.003 0.035858,-0.007 0.063101,-0.0161 0.00682,-0.002 0.014712,-0.004 0.023962,-0.009 0.00924,-0.005 0.035819,-0.0179 0.036742,-0.0186 9.242e-4,-6.2e-4 0.050653,-0.051 0.05112,-0.0516 2.339e-4,-3.1e-4 0.02704,-0.0513 0.027157,-0.0516 1.176e-4,-3.3e-4 0.011981,-0.0731 0.011981,-0.0734 0,-6e-5 -0.00166,-0.009 -0.0024,-0.0137 h 0.1869063 v -0.46484 a 0.20449909,0.2066147 0 0 0 0,-0.40915 v -0.10653 a 0.20449909,0.2066147 0 0 0 0,-0.40834 v -0.0839 h 0.3921836 v -0.68354 c 0.7996478,-0.48447 1.3216592,-1.33468 1.3219225,-2.29029 -2.1e-6,-1.48797 -1.1863918,-2.70267 -2.6470399,-2.70267 z m 0,0.4148 c 1.2372643,0 2.2396783,1.02082 2.2396802,2.28787 -2.364e-4,0.85743 -0.4686154,1.63934 -1.2132932,2.03124 l -0.1118243,0.0581 v 0.46967 H 3.3175835 v -0.46967 l -0.1094281,-0.0581 C 2.46398,293.40466 1.9956867,292.6219 1.9948622,291.76505 c 1.6e-6,-1.26705 1.0000183,-2.28787 2.2372838,-2.28787 z m -0.00319,1.681 A 0.20449909,0.2066147 0 0 0 4.0300685,291.368 v 1.81254 a 0.20449909,0.2066147 0 1 0 0.40736,0 V 291.368 A 0.20449909,0.2066147 0 0 0 4.228959,291.15818 Z m -1.3291112,0.54796 a 0.20449909,0.2066147 0 0 0 -0.019969,8.3e-4 0.20449909,0.2066147 0 0 0 -0.1605476,0.30505 l 0.8306945,1.60433 a 0.20457522,0.20669162 0 1 0 0.3618314,-0.19207 l -0.8298957,-1.60433 a 0.20449909,0.2066147 0 0 0 -0.182114,-0.11379 z m 2.5999141,8.3e-4 a 0.20449909,0.2066147 0 0 0 -0.174925,0.11298 l -0.8298958,1.60433 a 0.20591287,0.2080431 0 1 0 0.3650263,0.19207 l 0.8267008,-1.60433 A 0.20449909,0.2066147 0 0 0 5.4997589,291.70697 Z M 3.709772,294.7389 h 1.0471544 v 0.0823 H 3.709775 Z m 0,0.49389 h 1.0471544 v 0.1041 H 3.709775 Z m 0,0.51567 h 1.0471544 v 0.0516 H 3.709775 Z"
       id="circle1066-3"
       inkscape:connector-curvature="0" />
  </g>
</svg>
